<svg id="SvgjsSvg1001" width="288" height="288" xmlns="http://www.w3.org/2000/svg" version="1.1" xmlns:xlink="http://www.w3.org/1999/xlink" xmlns:svgjs="http://svgjs.com/svgjs"><defs id="SvgjsDefs1002"></defs><g id="SvgjsG1008" transform="matrix(0.9167,0,0,0.9167,11.995165136718413,11.995200000000011)"><svg xmlns="http://www.w3.org/2000/svg" width="288" height="288" viewBox="0 0 84 84"><g transform="translate(-1235.576 -2975.132)" fill="#000000" class="color000 svgShape"><circle cx="1277.576" cy="3017.132" r="42" fill="#0d6efd" class="colorea6153 svgShape"></circle><g transform="translate(-2882.058 2516.595)" fill="#000000" class="color000 svgShape"><path fill="none" stroke="#000000" stroke-width="1.5" d="M4152.4301 481.80119l14.2386 0M4157.1763 481.80119l-4.7462-4.73287M4161.9226 481.80119l4.7461-4.73287M4159.5494 481.2701l0-4.73286" class="colorStroke3b3c3d svgStroke"></path><path fill="#cbdb2e" stroke="#000000" stroke-width="1.5" d="m 4152.51,486.54862 14.239,0 c 0,0 13.2127,19.13492 9.4925,28.39729 -2.3486,5.84737 -10.4288,8.86197 -16.7445,8.84115 -6.2377,-0.0201 -14.179,-3.05828 -16.4795,-8.84115 -3.6895,-9.27467 9.4925,-28.39729 9.4925,-28.39729 z" class="colorcbdb2e svgShape colorStroke3b3c3d svgStroke"></path><path fill="none" stroke="#000000" stroke-width="1.5" d="M4157.6678 497.27422a3.6751094 3.9454501 0 013.2805 1.91415 3.6751094 3.9454501 0 01.027 4.00828 3.6751094 3.9454501 0 01-3.2542 1.96523M4155.959 505.1627l1.8375 0M4155.959 497.27179l7.3501 0M4157.7965 505.1627l3.6751 7.89091M4155.959 501.21726l7.3501 0" class="colorStroke3b3c3d svgStroke"></path></g></g></svg></g></svg>